<?xml version="1.0" encoding="UTF-8" standalone="no"?>
<!DOCTYPE svg PUBLIC "-//W3C//DTD SVG 1.1//EN"
 "http://www.w3.org/Graphics/SVG/1.1/DTD/svg11.dtd">
<!-- Generated by graphviz version 2.40.1 (20161225.0304)
 -->
<!-- Title: flowchart Pages: 1 -->
<svg width="290pt" height="548pt"
 viewBox="0.00 0.00 290.05 548.00" xmlns="http://www.w3.org/2000/svg" xmlns:xlink="http://www.w3.org/1999/xlink">
<g id="graph0" class="graph" transform="scale(1 1) rotate(0) translate(4 544)">
<title>flowchart</title>
<polygon fill="#ffffff" stroke="transparent" points="-4,4 -4,-544 286.0462,-544 286.0462,4 -4,4"/>
<!-- rec1 -->
<g id="node1" class="node">
<title>rec1</title>
<polygon fill="#ffffff" stroke="#000000" points="201.2744,-540 80.7718,-540 80.7718,-504 201.2744,-504 201.2744,-540"/>
<text text-anchor="middle" x="141.0231" y="-517.8" font-family="Helvetica,sans-Serif" font-size="14.00" fill="#000000">1. Data collected</text>
</g>
<!-- rec2 -->
<g id="node2" class="node">
<title>rec2</title>
<polygon fill="#ffffff" stroke="#000000" points="259.7371,-468 22.3091,-468 22.3091,-432 259.7371,-432 259.7371,-468"/>
<text text-anchor="middle" x="141.0231" y="-445.8" font-family="Helvetica,sans-Serif" font-size="14.00" fill="#000000">2. Refer tp Water Quality Standards</text>
</g>
<!-- rec1&#45;&gt;rec2 -->
<g id="edge1" class="edge">
<title>rec1&#45;&gt;rec2</title>
<path fill="none" stroke="#000000" d="M141.0231,-503.8314C141.0231,-496.131 141.0231,-486.9743 141.0231,-478.4166"/>
<polygon fill="#000000" stroke="#000000" points="144.5232,-478.4132 141.0231,-468.4133 137.5232,-478.4133 144.5232,-478.4132"/>
</g>
<!-- rec3 -->
<g id="node3" class="node">
<title>rec3</title>
<polygon fill="#ffffff" stroke="#000000" points="282.0693,-396 -.0231,-396 -.0231,-360 282.0693,-360 282.0693,-396"/>
<text text-anchor="middle" x="141.0231" y="-373.8" font-family="Helvetica,sans-Serif" font-size="14.00" fill="#000000">3. Data is submitted with QAPP and DUAR</text>
</g>
<!-- rec2&#45;&gt;rec3 -->
<g id="edge2" class="edge">
<title>rec2&#45;&gt;rec3</title>
<path fill="none" stroke="#000000" d="M141.0231,-431.8314C141.0231,-424.131 141.0231,-414.9743 141.0231,-406.4166"/>
<polygon fill="#000000" stroke="#000000" points="144.5232,-406.4132 141.0231,-396.4133 137.5232,-406.4133 144.5232,-406.4132"/>
</g>
<!-- rec4 -->
<g id="node4" class="node">
<title>rec4</title>
<polygon fill="#ffffff" stroke="#000000" points="226.3296,-324 55.7166,-324 55.7166,-288 226.3296,-288 226.3296,-324"/>
<text text-anchor="middle" x="141.0231" y="-301.8" font-family="Helvetica,sans-Serif" font-size="14.00" fill="#000000">4. Data is ELAP Certified</text>
</g>
<!-- rec3&#45;&gt;rec4 -->
<g id="edge3" class="edge">
<title>rec3&#45;&gt;rec4</title>
<path fill="none" stroke="#000000" d="M141.0231,-359.8314C141.0231,-352.131 141.0231,-342.9743 141.0231,-334.4166"/>
<polygon fill="#000000" stroke="#000000" points="144.5232,-334.4132 141.0231,-324.4133 137.5232,-334.4133 144.5232,-334.4132"/>
</g>
<!-- rec5 -->
<g id="node5" class="node">
<title>rec5</title>
<polygon fill="#ffffff" stroke="#000000" points="248.6872,-252 33.359,-252 33.359,-216 248.6872,-216 248.6872,-252"/>
<text text-anchor="middle" x="141.0231" y="-229.8" font-family="Helvetica,sans-Serif" font-size="14.00" fill="#000000">5. Data solicitation period opens</text>
</g>
<!-- rec4&#45;&gt;rec5 -->
<g id="edge4" class="edge">
<title>rec4&#45;&gt;rec5</title>
<path fill="none" stroke="#000000" d="M141.0231,-287.8314C141.0231,-280.131 141.0231,-270.9743 141.0231,-262.4166"/>
<polygon fill="#000000" stroke="#000000" points="144.5232,-262.4132 141.0231,-252.4133 137.5232,-262.4133 144.5232,-262.4132"/>
</g>
<!-- rec6 -->
<g id="node6" class="node">
<title>rec6</title>
<polygon fill="#ffffff" stroke="#000000" points="249.2287,-180 32.8175,-180 32.8175,-144 249.2287,-144 249.2287,-180"/>
<text text-anchor="middle" x="141.0231" y="-157.8" font-family="Helvetica,sans-Serif" font-size="14.00" fill="#000000">6. Data solicitation period closes</text>
</g>
<!-- rec5&#45;&gt;rec6 -->
<g id="edge5" class="edge">
<title>rec5&#45;&gt;rec6</title>
<path fill="none" stroke="#000000" d="M141.0231,-215.8314C141.0231,-208.131 141.0231,-198.9743 141.0231,-190.4166"/>
<polygon fill="#000000" stroke="#000000" points="144.5232,-190.4132 141.0231,-180.4133 137.5232,-190.4133 144.5232,-190.4132"/>
</g>
<!-- rec7 -->
<g id="node7" class="node">
<title>rec7</title>
<polygon fill="#ffffff" stroke="#000000" points="208.5413,-108 73.5049,-108 73.5049,-72 208.5413,-72 208.5413,-108"/>
<text text-anchor="middle" x="141.0231" y="-85.8" font-family="Helvetica,sans-Serif" font-size="14.00" fill="#000000">7. Data is reviewed</text>
</g>
<!-- rec6&#45;&gt;rec7 -->
<g id="edge6" class="edge">
<title>rec6&#45;&gt;rec7</title>
<path fill="none" stroke="#000000" d="M141.0231,-143.8314C141.0231,-136.131 141.0231,-126.9743 141.0231,-118.4166"/>
<polygon fill="#000000" stroke="#000000" points="144.5232,-118.4132 141.0231,-108.4133 137.5232,-118.4133 144.5232,-118.4132"/>
</g>
<!-- rec8 -->
<g id="node8" class="node">
<title>rec8</title>
<polygon fill="#ffffff" stroke="#000000" points="257.5707,-36 24.4755,-36 24.4755,0 257.5707,0 257.5707,-36"/>
<text text-anchor="middle" x="141.0231" y="-13.8" font-family="Helvetica,sans-Serif" font-size="14.00" fill="#000000">8. Data is integrated into 303(d) list</text>
</g>
<!-- rec7&#45;&gt;rec8 -->
<g id="edge7" class="edge">
<title>rec7&#45;&gt;rec8</title>
<path fill="none" stroke="#000000" d="M141.0231,-71.8314C141.0231,-64.131 141.0231,-54.9743 141.0231,-46.4166"/>
<polygon fill="#000000" stroke="#000000" points="144.5232,-46.4132 141.0231,-36.4133 137.5232,-46.4133 144.5232,-46.4132"/>
</g>
</g>
</svg>

